<svg width="1025" height="1112" viewBox="0 0 1025 1112" fill="none" xmlns="http://www.w3.org/2000/svg">
<path opacity="0.5" d="M318.343 37.6942C198.405 138.217 179.819 328.298 98.5892 468.527C70.3124 517.322 33.7749 560.992 14.7119 615.123C-29.0536 739.026 31.1802 879.572 111.801 977.981C150.245 1024.93 195.149 1067.94 249.478 1087.72C291.258 1102.94 336.056 1103.57 380.033 1103.97L1150.5 1111.9C1236.52 1112.77 1332.1 1109.62 1393.95 1043.21C1436.57 997.478 1453.89 930.692 1468.58 866.944C1486.64 788.613 1503 703.546 1474.91 628.94C1442.82 543.582 1361.67 495.21 1311.26 421.555C1229.45 302.223 1231.33 121.731 1127.14 26.4664C1078.51 -17.9959 1014.33 -35.4321 951.792 -44.1502C833.892 -60.6089 722.215 -29.5408 606.433 -33.8734C507.464 -37.572 400.447 -31.1259 318.343 37.6942Z" fill="#E7ECFF"/>
<path opacity="0.24" d="M562.078 933.613C515.629 938.283 467.755 943.419 426.881 966.264C421.41 969.328 415.856 972.942 412.837 978.458C406.78 989.553 413.655 1004.18 424.324 1010.86C434.993 1017.53 448.156 1018.29 460.712 1018.84C684.279 1028.59 908.181 1024.76 1131.94 1020.96C1196.92 1019.86 1262.92 1018.59 1325.19 999.718C1336.39 996.337 1348.69 991.265 1352.9 980.212C1358.42 965.757 1345.84 949.737 1331.17 945.236C1316.5 940.735 1300.84 944.095 1285.66 946.06C1232.97 952.886 1179.81 942.446 1127.35 934.099C1024.64 917.784 918.075 904.512 814.047 902.039C778.581 901.215 748.293 913.515 713.582 918.376C663.465 925.434 612.467 928.541 562.078 933.613Z" fill="#505F98"/>
<path d="M379.369 500.326L495.198 264.408L564.185 298.19L448.355 534.108L379.369 500.326Z" fill="white"/>
<path d="M406.214 493.055L420.327 464.22L466.791 486.903L452.678 515.738L406.214 493.055Z" fill="#505F98"/>
<path d="M406.214 493.055L420.327 464.22L466.791 486.903L452.678 515.738L406.214 493.055Z" fill="url(#paint0_linear_108_1327)"/>
<path d="M420.329 464.445L434.443 435.61L480.907 458.293L466.794 487.128L420.329 464.445Z" fill="#505F98"/>
<path d="M420.329 464.445L434.443 435.61L480.907 458.293L466.794 487.128L420.329 464.445Z" fill="url(#paint1_linear_108_1327)"/>
<path d="M434.426 435.826L448.54 406.991L495.004 429.674L480.89 458.509L434.426 435.826Z" fill="#505F98"/>
<path d="M434.426 435.826L448.54 406.991L495.004 429.674L480.89 458.509L434.426 435.826Z" fill="url(#paint2_linear_108_1327)"/>
<path d="M448.563 407.237L462.676 378.402L509.14 401.085L495.027 429.92L448.563 407.237Z" fill="#505F98"/>
<path d="M448.563 407.237L462.676 378.402L509.14 401.085L495.027 429.92L448.563 407.237Z" fill="url(#paint3_linear_108_1327)"/>
<path d="M462.668 378.599L476.782 349.764L523.246 372.447L509.133 401.282L462.668 378.599Z" fill="#505F98"/>
<path d="M476.784 350.01L490.897 321.175L537.362 343.858L523.248 372.693L476.784 350.01Z" fill="#505F98"/>
<path d="M490.881 321.391L504.994 292.556L551.458 315.239L537.345 344.074L490.881 321.391Z" fill="#505F98"/>
<path d="M475.196 353.598L489.309 324.763L535.774 347.446L521.66 376.281L475.196 353.598Z" fill="url(#paint4_linear_108_1327)"/>
<path d="M489.321 324.97L503.434 296.135L549.898 318.817L535.785 347.652L489.321 324.97Z" fill="url(#paint5_linear_108_1327)"/>
<rect x="789.837" y="818" width="98.0679" height="82" fill="#505F98"/>
<rect x="789.837" y="818" width="98.0679" height="82" fill="url(#paint6_linear_108_1327)"/>
<rect x="581.693" y="476" width="518.359" height="355" rx="9.37" fill="#505F98"/>
<path opacity="0.65" d="M1083.04 505.438V799.562C1083.06 804.443 1081.13 809.129 1077.69 812.588C1074.25 816.047 1069.58 817.994 1064.7 818H613.039C608.165 817.989 603.494 816.04 600.056 812.582C596.617 809.125 594.691 804.441 594.702 799.562V505.438C594.691 500.559 596.617 495.875 600.056 492.418C603.494 488.96 608.165 487.011 613.039 487H1064.7C1069.58 487.006 1074.25 488.953 1077.69 492.412C1081.13 495.871 1083.06 500.557 1083.04 505.438Z" fill="url(#paint7_linear_108_1327)"/>
<rect x="744.806" y="890" width="206.143" height="21" fill="#505F98"/>
<rect x="789.837" y="878" width="98.0679" height="12" fill="url(#paint8_linear_108_1327)"/>
<path fill-rule="evenodd" clip-rule="evenodd" d="M944.945 304.241V324.715L932.235 324.819C930.999 334.346 927.375 343.41 921.697 351.181L932.552 362.351L917.672 376.6L906.986 365.578C900.397 370.062 892.962 373.17 885.13 374.714V388H864.559V375.029C855.774 373.76 847.402 370.497 840.089 365.494L831.153 374.316L816.589 359.647L825.462 350.993C819.876 343.219 816.313 334.191 815.092 324.715H800.845V304.241H815.598C817.427 296.093 821.024 288.441 826.136 281.819L817.896 273.332L832.776 259.082L841.206 267.82C848.176 263.214 856.1 260.228 864.39 259.082V245H884.961V259.396C893.33 261.055 901.239 264.493 908.145 269.476L918.683 259.166L933.163 273.709L922.625 284.187C926.756 290.267 929.689 297.073 931.266 304.241H944.945ZM838.803 317.15C838.78 336.211 854.303 351.682 873.474 351.705C882.686 351.733 891.529 348.113 898.051 341.644C904.572 335.176 908.235 326.392 908.229 317.233C908.253 298.172 892.73 282.701 873.559 282.678C854.387 282.655 838.827 298.088 838.803 317.15Z" fill="#505F98"/>
<path fill-rule="evenodd" clip-rule="evenodd" d="M1021 338.354L1020.08 350.396L1012.57 349.938C1011.44 355.475 1008.94 360.641 1005.28 364.958L1011.15 372.021L1001.8 379.729L996.039 372.792C991.984 375.13 987.498 376.625 982.85 377.188L982.245 385L970.204 384.104L970.788 376.479C965.703 375.344 960.947 373.056 956.89 369.792L951.256 374.583L943.388 365.396L948.96 360.688C946.032 355.876 944.346 350.414 944.056 344.792L935.938 344.167L936.836 332.146L945.454 332.792C946.878 328.085 949.305 323.743 952.57 320.062L948.125 314.708L957.474 307L962.003 312.5C966.274 310.095 971.029 308.672 975.922 308.333L976.548 300L988.589 300.896L987.942 309.375C992.749 310.714 997.207 313.081 1001.01 316.312L1007.62 310.708L1015.47 319.896L1008.79 325.583C1010.96 329.339 1012.37 333.477 1012.96 337.771L1021 338.354ZM958.3 341.243C957.445 352.436 965.837 362.203 977.049 363.062C982.443 363.487 987.784 361.747 991.889 358.228C995.994 354.708 998.524 349.7 998.919 344.312C999.761 333.119 991.358 323.361 980.146 322.514C968.934 321.666 959.155 330.05 958.3 341.243Z" fill="#505F98"/>
<path d="M1083.04 505.513V512H594.702V505.513C594.691 500.614 596.617 495.912 600.056 492.44C603.495 488.968 608.166 487.011 613.041 487H1064.7C1069.58 487.006 1074.25 488.961 1077.69 492.434C1081.13 495.907 1083.06 500.613 1083.04 505.513Z" fill="url(#paint9_linear_108_1327)"/>
<rect x="604.709" y="544" width="47.0326" height="227" fill="url(#paint10_linear_108_1327)"/>
<rect x="722.791" y="560" width="221.153" height="209" fill="url(#paint11_linear_108_1327)"/>
<rect x="773.826" y="658" width="7.00485" height="9" fill="url(#paint12_linear_108_1327)"/>
<rect x="773.826" y="616" width="7.00485" height="9" fill="url(#paint13_linear_108_1327)"/>
<rect x="678.76" y="658" width="7.00485" height="9" fill="url(#paint14_linear_108_1327)"/>
<rect x="678.76" y="616" width="7.00485" height="9" fill="url(#paint15_linear_108_1327)"/>
<rect x="773.826" y="571" width="7.00485" height="9" fill="url(#paint16_linear_108_1327)"/>
<rect x="679.761" y="571" width="7.00485" height="9" fill="url(#paint17_linear_108_1327)"/>
<rect x="727.794" y="571" width="7.00485" height="9" fill="url(#paint18_linear_108_1327)"/>
<rect x="727.794" y="658" width="7.00485" height="9" fill="url(#paint19_linear_108_1327)"/>
<path fill-rule="evenodd" clip-rule="evenodd" d="M691.769 656H769.823V583H691.769V656ZM761.961 648.282H699.631V590.656H761.961V648.282Z" fill="#505F98"/>
<path fill-rule="evenodd" clip-rule="evenodd" d="M691.769 656H769.823V583H691.769V656ZM761.961 648.282H699.631V590.656H761.961V648.282Z" fill="url(#paint20_linear_108_1327)"/>
<rect x="975.966" y="524" width="100.069" height="100" fill="url(#paint21_linear_108_1327)"/>
<rect x="975.966" y="634" width="100.069" height="100" fill="url(#paint22_linear_108_1327)"/>
<rect opacity="0.65" x="604.709" y="543" width="47.0326" height="13" fill="url(#paint23_linear_108_1327)"/>
<path d="M401.673 474.827L606.801 310.293L654.914 370.118L449.785 534.652L401.673 474.827Z" fill="white"/>
<path d="M430.396 479.455L455.464 459.235L488.046 499.522L462.979 519.742L430.396 479.455Z" fill="#505F98"/>
<path d="M430.396 479.455L455.464 459.235L488.046 499.522L462.979 519.742L430.396 479.455Z" fill="url(#paint24_linear_108_1327)"/>
<path d="M454.014 459.689L479.047 439.56L511.481 479.79L486.449 499.919L454.014 459.689Z" fill="#505F98"/>
<path d="M454.014 459.689L479.047 439.56L511.481 479.79L486.449 499.919L454.014 459.689Z" fill="url(#paint25_linear_108_1327)"/>
<path d="M478.958 439.761L503.99 419.633L536.425 459.863L511.393 479.991L478.958 439.761Z" fill="#505F98"/>
<path d="M478.958 439.761L503.99 419.633L536.425 459.863L511.393 479.991L478.958 439.761Z" fill="url(#paint26_linear_108_1327)"/>
<path d="M503.886 419.847L528.918 399.718L561.353 439.948L536.321 460.077L503.886 419.847Z" fill="#505F98"/>
<path d="M503.886 419.847L528.918 399.718L561.353 439.948L536.321 460.077L503.886 419.847Z" fill="url(#paint27_linear_108_1327)"/>
<path d="M530.006 399.389L555.073 379.169L587.656 419.456L562.588 439.676L530.006 399.389Z" fill="#505F98"/>
<path d="M555.086 378.99L580.154 358.77L612.736 399.057L587.668 419.277L555.086 378.99Z" fill="#505F98"/>
<path d="M578.693 360.051L603.726 339.923L636.161 380.153L611.128 400.281L578.693 360.051Z" fill="#505F98"/>
<path d="M608.712 403.218L587.613 420L555.675 379.782L576.774 363L608.712 403.218Z" fill="url(#paint28_linear_108_1327)"/>
<path d="M575.736 362.648L600.768 342.519L633.203 382.749L608.171 402.878L575.736 362.648Z" fill="url(#paint29_linear_108_1327)"/>
<path d="M524.653 484.15V607H503.639V484.15C503.639 479.61 506.457 475.57 510.657 474.089V461.825C510.657 459.712 512.333 458 514.4 458C516.468 458 518.144 459.712 518.144 461.825V474.297C522.063 475.935 524.632 479.823 524.653 484.15Z" fill="#505F98"/>
<path d="M524.653 484.15V607H503.639V484.15C503.639 479.61 506.457 475.57 510.657 474.089V461.825C510.657 459.712 512.333 458 514.4 458C516.468 458 518.144 459.712 518.144 461.825V474.297C522.063 475.935 524.632 479.823 524.653 484.15Z" fill="url(#paint30_linear_108_1327)"/>
<rect x="490.63" y="562" width="50.0346" height="9" rx="2.245" fill="#505F98"/>
<path d="M515.336 644C506.763 644 499.636 631.185 499.636 622.634V566H530.658V622.634C530.658 631.185 523.887 644 515.336 644Z" fill="#505F98"/>
<rect x="490.63" y="562" width="50.0346" height="9" rx="2.245" fill="url(#paint31_linear_108_1327)"/>
<path d="M515.336 644C506.763 644 499.636 631.366 499.636 622.937V571H530.658V622.937C530.658 631.366 523.887 644 515.336 644Z" fill="url(#paint32_linear_108_1327)"/>
<path d="M715.428 704C714.754 700.436 714.329 695.39 715.623 695.043C718.351 694.275 715.428 704 715.428 704Z" fill="#28353D"/>
<path d="M858.687 899.507C858.201 912.102 848.439 958.388 848.122 971.004C848.122 975.202 849.242 981.647 847.889 985.698C845.1 994.284 835.211 993.108 833.922 988.049L833.436 985.53C828.85 961.012 836.225 933.198 833.436 901.186C831.766 881.643 823.99 843.963 818.898 843.711C816.214 843.711 754.957 972.851 749.632 980.807C747.011 984.817 739.637 984.187 736.066 987.42C732.495 990.652 765.818 889.515 779.785 836.07C783.043 825.039 785.167 813.709 786.124 802.252C786.505 795.64 784.37 793.415 790.477 791.463C794.703 790.119 800.557 790.497 805.078 790.182C810.002 789.804 855.792 789.72 855.792 792.953C855.348 810.502 859.87 870.412 858.687 899.507Z" fill="#606161"/>
<path d="M858.687 899.507C858.201 912.102 848.439 958.388 848.122 971.004C848.122 975.202 849.242 981.647 847.889 985.698C845.1 994.284 835.211 993.108 833.922 988.049L833.436 985.53C828.85 961.012 836.225 933.198 833.436 901.186C831.766 881.643 823.99 843.963 818.898 843.711C816.214 843.711 754.957 972.851 749.632 980.807C747.011 984.817 739.637 984.187 736.066 987.42C732.495 990.652 765.818 889.515 779.785 836.07C783.043 825.039 785.167 813.709 786.124 802.252C786.505 795.64 784.37 793.415 790.477 791.463C794.703 790.119 800.557 790.497 805.078 790.182C810.002 789.804 855.792 789.72 855.792 792.953C855.348 810.502 859.87 870.412 858.687 899.507Z" fill="url(#paint33_linear_108_1327)"/>
<path d="M804.614 631.148C804.229 627.163 802.346 625 800.506 625C798.667 625 797.533 627.12 797.918 631.148C798.005 634.122 800.249 636.597 803.223 637C805.085 637 805.02 635.134 804.614 631.148Z" fill="#FFCD9C"/>
<path d="M837.008 631.159C837.258 627.166 839.095 625 840.994 625C842.893 625 844.124 627.124 843.832 631.159C843.805 634.173 841.56 636.687 838.615 637C836.736 637 836.715 635.152 837.008 631.159Z" fill="#FFCD9C"/>
<path d="M840.732 648.672C840.473 650.777 831.558 660 821.413 660C811.267 660 802.892 651.577 801.122 648.208C799.352 644.839 806.475 601.505 810.598 597.884C814.721 594.262 831.429 596.641 832.832 598.558C836.199 603.085 841.833 640.27 840.732 648.672Z" fill="#F4AD7D"/>
<path d="M836.538 615.977C835.159 616.639 829.743 602.842 828.607 600.525C827.472 598.208 827.654 595.829 829.033 595.167C830.413 594.505 832.441 595.871 833.577 598.167C834.713 600.463 837.897 615.336 836.538 615.977Z" fill="#FFCD9C"/>
<path d="M806.168 614.987C804.737 614.501 808.525 600.179 809.351 597.703C810.177 595.228 812.031 593.599 813.381 594.086C814.731 594.573 815.295 596.984 814.469 599.481C813.643 601.977 807.518 615.474 806.168 614.987Z" fill="#FFCD9C"/>
<path d="M811.845 647H833.608L836.87 667.622C825.014 674.005 818.101 673.301 808.85 666.214L811.845 647Z" fill="#F4AD7D"/>
<path d="M820.859 651.13C820.859 650.75 821.764 650.43 822.86 650.43C823.956 650.43 824.861 650.75 824.861 651.13C824.861 651.51 823.98 651.57 822.86 651.57C821.74 651.57 820.859 651.53 820.859 651.13Z" fill="#F4AD7D"/>
<path d="M841.892 641.808C842.716 636.894 844.06 601.708 840.764 597.051C837.469 592.394 817.741 589.381 814.749 590.108C808.05 591.731 809.221 596.517 809.221 596.517C807.23 596.547 805.28 597.084 803.563 598.076C801.265 599.615 796.43 621.79 800.289 638.56C802.023 646.102 808.852 652.66 820.646 652.981C835.171 653.365 840.895 647.896 841.892 641.808Z" fill="#606161"/>
<path d="M814.831 591.762C816.39 590.448 818.41 589.828 820.43 590.041C826.563 590.008 832.647 591.14 838.365 593.376C841.535 594.488 844.414 596.311 846.785 598.708C849.172 601.173 850.271 604.627 849.753 608.034C848.7 613.047 843.438 616.148 841.712 620.97C840.322 624.837 841.312 628.575 841.354 632.463C841.382 635.606 841.156 638.746 840.68 641.852C839.712 647.906 834.176 653.344 819.967 652.983C808.516 652.664 801.885 646.143 800.201 638.644C797.921 626.198 798.519 613.389 801.948 601.215C808.12 602.648 814.434 603.361 820.767 603.339C827.482 603.395 834.178 602.611 840.701 601.002C841.817 607.503 841.796 620.524 841.438 630.253" fill="#606161"/>
<path d="M779.702 663.954C776.268 664.241 772.96 665.384 770.077 667.28C765.139 671.171 764.764 678.43 764.848 684.748C764.678 693.501 765.285 702.252 766.66 710.897C768.139 718.826 770.827 726.441 773.035 734.202C776.516 746.831 778.344 759.862 778.473 772.966C778.473 780.162 778.348 788.07 782.827 793.697C787.723 799.806 796.39 800.998 804.182 801.438C815.245 802.086 826.349 802.17 837.412 801.709C844.829 801.375 852.725 800.643 858.6 796.082C863.288 792.442 874.267 669.288 865.746 666.171C857.225 663.054 848.058 662.259 839.016 661.506C818.745 659.791 799.661 658.431 779.702 663.954Z" fill="#505F98"/>
<path d="M843.521 919.291C842.435 933.255 839.843 984 839.843 984L833.238 983.77C828.702 959.39 835.997 931.732 833.238 899.899C831.586 880.465 823.895 842.996 818.857 842.746C820.362 830.221 828.827 832.1 828.827 832.1C834.984 841.294 840.294 851.026 844.692 861.178C849.729 874.37 844.629 905.263 843.521 919.291Z" fill="url(#paint34_linear_108_1327)"/>
<path d="M719.164 985.024C718.133 985.786 717.35 986.83 716.913 988.025C716.678 989.009 716.773 990.04 717.184 990.965C718.35 993.326 720.56 995.019 723.168 995.55C725.744 996.04 728.383 996.131 730.987 995.818L739.328 995.262C741.45 995.212 743.555 994.873 745.583 994.255C747.614 993.627 749.289 992.198 750.212 990.308C750.704 988.916 750.895 987.438 750.775 985.969C750.775 979.164 748.357 973.634 740.808 975.299C732.902 976.765 725.474 980.102 719.164 985.024Z" fill="#505F98"/>
<path d="M857.703 988.063C858.65 988.759 859.369 989.709 859.77 990.797C859.984 991.682 859.9 992.611 859.53 993.446C858.468 995.584 856.438 997.114 854.047 997.579C851.69 998.035 849.273 998.121 846.888 997.834L839.316 997.325C837.39 997.284 835.478 996.985 833.636 996.435C831.779 995.864 830.25 994.566 829.415 992.853C828.967 991.595 828.789 990.26 828.893 988.932C828.893 982.785 831.069 977.72 838.01 979.288C845.206 980.619 851.964 983.63 857.703 988.063Z" fill="#505F98"/>
<path d="M866.891 666C866.891 666 899.606 685.163 909.432 709.389C919.257 733.614 877.252 792 877.252 792L868.263 782.814C868.263 782.814 890.188 738.759 886.799 727.74C883.409 716.721 870.13 706.452 870.13 706.452L866.891 666Z" fill="#505F98"/>
<path d="M773.826 703.859C773.826 703.859 728.338 724.24 709.853 714.238C691.368 704.237 710.398 654 710.398 654L722.777 658.202C722.777 658.202 712.433 683.815 724.267 687.618C736.101 691.421 771.56 666.438 771.56 666.438L773.826 703.859Z" fill="#505F98"/>
<path d="M859.466 790.976C858.158 791.826 857.097 792.968 856.381 794.297C855.952 795.425 855.797 796.629 855.928 797.819C855.849 800.709 857.163 803.479 859.51 805.367C861.158 806.25 863.005 806.76 864.903 806.857C866.066 807.048 867.256 807.048 868.419 806.857C869.606 806.646 870.597 805.888 871.051 804.844C871.206 804.183 871.271 803.507 871.245 802.831C871.396 799.51 873.899 796.793 875.97 794.076C876.47 793.551 876.793 792.9 876.897 792.204C876.885 791.434 876.597 790.69 876.078 790.091C874.675 788.199 871.202 784.717 868.419 785.018C865.636 785.32 861.624 789.326 859.466 790.976Z" fill="#F4AD7D"/>
<path d="M730.585 646.435C731.178 645.611 731.582 644.679 731.772 643.698C731.923 642.683 731.386 641.687 730.431 641.211C728.915 640.647 727.114 642.13 725.62 641.504C725.114 641.235 724.69 640.846 724.389 640.375C722.625 637.945 721.613 635.093 721.467 632.143C721.553 630.571 721.405 628.995 721.028 627.463C720.583 625.886 719 624.849 717.293 625.018C715.886 625.331 715.095 626.689 714.217 627.776C713.338 628.863 711.58 630.158 710.437 631.516C708.487 634.307 707.37 637.55 707.208 640.898C706.592 645.077 706.197 649.861 709.273 652.87C711.646 655.189 718.874 657.927 722.192 656.694C725.861 655.315 728.74 649.444 730.585 646.435Z" fill="#F4AD7D"/>
<defs>
<linearGradient id="paint0_linear_108_1327" x1="530.402" y1="560.166" x2="595.156" y2="431.6" gradientUnits="userSpaceOnUse">
<stop stop-color="#010101" stop-opacity="0.01"/>
<stop offset="0.95" stop-color="#010101"/>
</linearGradient>
<linearGradient id="paint1_linear_108_1327" x1="585.563" y1="556.365" x2="678.417" y2="374.775" gradientUnits="userSpaceOnUse">
<stop stop-color="#010101" stop-opacity="0.01"/>
<stop offset="0.95" stop-color="#010101"/>
</linearGradient>
<linearGradient id="paint2_linear_108_1327" x1="705.545" y1="565.092" x2="842.899" y2="254.948" gradientUnits="userSpaceOnUse">
<stop stop-color="#010101" stop-opacity="0.01"/>
<stop offset="0.95" stop-color="#010101"/>
</linearGradient>
<linearGradient id="paint3_linear_108_1327" x1="833.379" y1="581.583" x2="1038.31" y2="134.179" gradientUnits="userSpaceOnUse">
<stop stop-color="#010101" stop-opacity="0.01"/>
<stop offset="0.36" stop-color="#010101" stop-opacity="0.36"/>
<stop offset="0.95" stop-color="#010101"/>
</linearGradient>
<linearGradient id="paint4_linear_108_1327" x1="684.726" y1="476.564" x2="801.886" y2="234.969" gradientUnits="userSpaceOnUse">
<stop stop-color="white" stop-opacity="0.01"/>
<stop offset="0.07" stop-color="white" stop-opacity="0.22"/>
<stop offset="0.16" stop-color="white" stop-opacity="0.45"/>
<stop offset="0.25" stop-color="white" stop-opacity="0.65"/>
<stop offset="0.33" stop-color="white" stop-opacity="0.8"/>
<stop offset="0.4" stop-color="white" stop-opacity="0.91"/>
<stop offset="0.46" stop-color="white" stop-opacity="0.98"/>
<stop offset="0.51" stop-color="white"/>
</linearGradient>
<linearGradient id="paint5_linear_108_1327" x1="606.65" y1="423.444" x2="670.846" y2="287.555" gradientUnits="userSpaceOnUse">
<stop stop-color="white" stop-opacity="0.01"/>
<stop offset="0.07" stop-color="white" stop-opacity="0.22"/>
<stop offset="0.16" stop-color="white" stop-opacity="0.45"/>
<stop offset="0.25" stop-color="white" stop-opacity="0.65"/>
<stop offset="0.33" stop-color="white" stop-opacity="0.8"/>
<stop offset="0.4" stop-color="white" stop-opacity="0.91"/>
<stop offset="0.46" stop-color="white" stop-opacity="0.98"/>
<stop offset="0.51" stop-color="white"/>
</linearGradient>
<linearGradient id="paint6_linear_108_1327" x1="911.972" y1="886.322" x2="922.393" y2="759.584" gradientUnits="userSpaceOnUse">
<stop stop-color="#010101" stop-opacity="0.01"/>
<stop offset="0.95" stop-color="#010101"/>
</linearGradient>
<linearGradient id="paint7_linear_108_1327" x1="510.259" y1="423.517" x2="507.544" y2="873.071" gradientUnits="userSpaceOnUse">
<stop stop-color="white" stop-opacity="0.01"/>
<stop offset="0.07" stop-color="white" stop-opacity="0.22"/>
<stop offset="0.16" stop-color="white" stop-opacity="0.45"/>
<stop offset="0.25" stop-color="white" stop-opacity="0.65"/>
<stop offset="0.33" stop-color="white" stop-opacity="0.8"/>
<stop offset="0.4" stop-color="white" stop-opacity="0.91"/>
<stop offset="0.46" stop-color="white" stop-opacity="0.98"/>
<stop offset="0.51" stop-color="white"/>
</linearGradient>
<linearGradient id="paint8_linear_108_1327" x1="256.605" y1="861.073" x2="256.705" y2="1003.31" gradientUnits="userSpaceOnUse">
<stop stop-color="#010101" stop-opacity="0.01"/>
<stop offset="0.95" stop-color="#010101"/>
</linearGradient>
<linearGradient id="paint9_linear_108_1327" x1="1409.02" y1="606.966" x2="1443.2" y2="199.855" gradientUnits="userSpaceOnUse">
<stop stop-color="white" stop-opacity="0.01"/>
<stop offset="0.07" stop-color="white" stop-opacity="0.22"/>
<stop offset="0.16" stop-color="white" stop-opacity="0.45"/>
<stop offset="0.25" stop-color="white" stop-opacity="0.65"/>
<stop offset="0.33" stop-color="white" stop-opacity="0.8"/>
<stop offset="0.4" stop-color="white" stop-opacity="0.91"/>
<stop offset="0.46" stop-color="white" stop-opacity="0.98"/>
<stop offset="0.51" stop-color="white"/>
</linearGradient>
<linearGradient id="paint10_linear_108_1327" x1="582.138" y1="496.87" x2="720.145" y2="865.142" gradientUnits="userSpaceOnUse">
<stop stop-color="white" stop-opacity="0.01"/>
<stop offset="0.07" stop-color="white" stop-opacity="0.22"/>
<stop offset="0.16" stop-color="white" stop-opacity="0.45"/>
<stop offset="0.25" stop-color="white" stop-opacity="0.65"/>
<stop offset="0.33" stop-color="white" stop-opacity="0.8"/>
<stop offset="0.4" stop-color="white" stop-opacity="0.91"/>
<stop offset="0.46" stop-color="white" stop-opacity="0.98"/>
<stop offset="0.51" stop-color="white"/>
</linearGradient>
<linearGradient id="paint11_linear_108_1327" x1="685.668" y1="519.99" x2="682.343" y2="802.698" gradientUnits="userSpaceOnUse">
<stop stop-color="white" stop-opacity="0.01"/>
<stop offset="0.07" stop-color="white" stop-opacity="0.22"/>
<stop offset="0.16" stop-color="white" stop-opacity="0.45"/>
<stop offset="0.25" stop-color="white" stop-opacity="0.65"/>
<stop offset="0.33" stop-color="white" stop-opacity="0.8"/>
<stop offset="0.4" stop-color="white" stop-opacity="0.91"/>
<stop offset="0.46" stop-color="white" stop-opacity="0.98"/>
<stop offset="0.51" stop-color="white"/>
</linearGradient>
<linearGradient id="paint12_linear_108_1327" x1="1001.5" y1="711.704" x2="1020.69" y2="133.785" gradientUnits="userSpaceOnUse">
<stop stop-color="#010101" stop-opacity="0.01"/>
<stop offset="0.95" stop-color="#010101"/>
</linearGradient>
<linearGradient id="paint13_linear_108_1327" x1="1000.65" y1="712.045" x2="1019.84" y2="134.125" gradientUnits="userSpaceOnUse">
<stop stop-color="#010101" stop-opacity="0.01"/>
<stop offset="0.95" stop-color="#010101"/>
</linearGradient>
<linearGradient id="paint14_linear_108_1327" x1="906.472" y1="709.354" x2="925.688" y2="131.435" gradientUnits="userSpaceOnUse">
<stop stop-color="#010101" stop-opacity="0.01"/>
<stop offset="0.95" stop-color="#010101"/>
</linearGradient>
<linearGradient id="paint15_linear_108_1327" x1="905.62" y1="709.694" x2="924.836" y2="131.776" gradientUnits="userSpaceOnUse">
<stop stop-color="#010101" stop-opacity="0.01"/>
<stop offset="0.95" stop-color="#010101"/>
</linearGradient>
<linearGradient id="paint16_linear_108_1327" x1="999.712" y1="713.545" x2="1018.93" y2="135.627" gradientUnits="userSpaceOnUse">
<stop stop-color="#010101" stop-opacity="0.01"/>
<stop offset="0.95" stop-color="#010101"/>
</linearGradient>
<linearGradient id="paint17_linear_108_1327" x1="905.682" y1="711.236" x2="924.87" y2="133.317" gradientUnits="userSpaceOnUse">
<stop stop-color="#010101" stop-opacity="0.01"/>
<stop offset="0.95" stop-color="#010101"/>
</linearGradient>
<linearGradient id="paint18_linear_108_1327" x1="953.672" y1="712.396" x2="972.888" y2="134.499" gradientUnits="userSpaceOnUse">
<stop stop-color="#010101" stop-opacity="0.01"/>
<stop offset="0.95" stop-color="#010101"/>
</linearGradient>
<linearGradient id="paint19_linear_108_1327" x1="955.488" y1="709.843" x2="974.704" y2="131.925" gradientUnits="userSpaceOnUse">
<stop stop-color="#010101" stop-opacity="0.01"/>
<stop offset="0.95" stop-color="#010101"/>
</linearGradient>
<linearGradient id="paint20_linear_108_1327" x1="610.41" y1="724.399" x2="842.643" y2="941.094" gradientUnits="userSpaceOnUse">
<stop stop-color="white" stop-opacity="0.01"/>
<stop offset="0.07" stop-color="white" stop-opacity="0.22"/>
<stop offset="0.16" stop-color="white" stop-opacity="0.45"/>
<stop offset="0.25" stop-color="white" stop-opacity="0.65"/>
<stop offset="0.33" stop-color="white" stop-opacity="0.8"/>
<stop offset="0.4" stop-color="white" stop-opacity="0.91"/>
<stop offset="0.46" stop-color="white" stop-opacity="0.98"/>
<stop offset="0.51" stop-color="white"/>
</linearGradient>
<linearGradient id="paint21_linear_108_1327" x1="959.277" y1="504.864" x2="957.492" y2="640.026" gradientUnits="userSpaceOnUse">
<stop stop-color="white" stop-opacity="0.01"/>
<stop offset="0.07" stop-color="white" stop-opacity="0.22"/>
<stop offset="0.16" stop-color="white" stop-opacity="0.45"/>
<stop offset="0.25" stop-color="white" stop-opacity="0.65"/>
<stop offset="0.33" stop-color="white" stop-opacity="0.8"/>
<stop offset="0.4" stop-color="white" stop-opacity="0.91"/>
<stop offset="0.46" stop-color="white" stop-opacity="0.98"/>
<stop offset="0.51" stop-color="white"/>
</linearGradient>
<linearGradient id="paint22_linear_108_1327" x1="959.277" y1="614.864" x2="957.492" y2="750.026" gradientUnits="userSpaceOnUse">
<stop stop-color="white" stop-opacity="0.01"/>
<stop offset="0.07" stop-color="white" stop-opacity="0.22"/>
<stop offset="0.16" stop-color="white" stop-opacity="0.45"/>
<stop offset="0.25" stop-color="white" stop-opacity="0.65"/>
<stop offset="0.33" stop-color="white" stop-opacity="0.8"/>
<stop offset="0.4" stop-color="white" stop-opacity="0.91"/>
<stop offset="0.46" stop-color="white" stop-opacity="0.98"/>
<stop offset="0.51" stop-color="white"/>
</linearGradient>
<linearGradient id="paint23_linear_108_1327" x1="595.437" y1="540.281" x2="595.42" y2="558.481" gradientUnits="userSpaceOnUse">
<stop stop-color="white" stop-opacity="0.01"/>
<stop offset="0.07" stop-color="white" stop-opacity="0.22"/>
<stop offset="0.16" stop-color="white" stop-opacity="0.45"/>
<stop offset="0.25" stop-color="white" stop-opacity="0.65"/>
<stop offset="0.33" stop-color="white" stop-opacity="0.8"/>
<stop offset="0.4" stop-color="white" stop-opacity="0.91"/>
<stop offset="0.46" stop-color="white" stop-opacity="0.98"/>
<stop offset="0.51" stop-color="white"/>
</linearGradient>
<linearGradient id="paint24_linear_108_1327" x1="514.737" y1="593.052" x2="628.168" y2="503.635" gradientUnits="userSpaceOnUse">
<stop stop-color="#010101" stop-opacity="0.01"/>
<stop offset="0.95" stop-color="#010101"/>
</linearGradient>
<linearGradient id="paint25_linear_108_1327" x1="564.575" y1="612.988" x2="725.852" y2="487.867" gradientUnits="userSpaceOnUse">
<stop stop-color="#010101" stop-opacity="0.01"/>
<stop offset="0.95" stop-color="#010101"/>
</linearGradient>
<linearGradient id="paint26_linear_108_1327" x1="669.519" y1="671.751" x2="925.684" y2="449.028" gradientUnits="userSpaceOnUse">
<stop stop-color="#010101" stop-opacity="0.01"/>
<stop offset="0.95" stop-color="#010101"/>
</linearGradient>
<linearGradient id="paint27_linear_108_1327" x1="778.279" y1="740.865" x2="1153.96" y2="422.45" gradientUnits="userSpaceOnUse">
<stop stop-color="#010101" stop-opacity="0.01"/>
<stop offset="0.36" stop-color="#010101" stop-opacity="0.36"/>
<stop offset="0.95" stop-color="#010101"/>
</linearGradient>
<linearGradient id="paint28_linear_108_1327" x1="626.537" y1="503.751" x2="809.477" y2="372.322" gradientUnits="userSpaceOnUse">
<stop stop-color="white" stop-opacity="0.01"/>
<stop offset="0.07" stop-color="white" stop-opacity="0.22"/>
<stop offset="0.16" stop-color="white" stop-opacity="0.45"/>
<stop offset="0.25" stop-color="white" stop-opacity="0.65"/>
<stop offset="0.33" stop-color="white" stop-opacity="0.8"/>
<stop offset="0.4" stop-color="white" stop-opacity="0.91"/>
<stop offset="0.46" stop-color="white" stop-opacity="0.98"/>
<stop offset="0.51" stop-color="white"/>
</linearGradient>
<linearGradient id="paint29_linear_108_1327" x1="640.151" y1="501.517" x2="756.009" y2="405.658" gradientUnits="userSpaceOnUse">
<stop stop-color="white" stop-opacity="0.01"/>
<stop offset="0.07" stop-color="white" stop-opacity="0.22"/>
<stop offset="0.16" stop-color="white" stop-opacity="0.45"/>
<stop offset="0.25" stop-color="white" stop-opacity="0.65"/>
<stop offset="0.33" stop-color="white" stop-opacity="0.8"/>
<stop offset="0.4" stop-color="white" stop-opacity="0.91"/>
<stop offset="0.46" stop-color="white" stop-opacity="0.98"/>
<stop offset="0.51" stop-color="white"/>
</linearGradient>
<linearGradient id="paint30_linear_108_1327" x1="505.738" y1="667.745" x2="543.923" y2="667.767" gradientUnits="userSpaceOnUse">
<stop stop-color="white" stop-opacity="0.01"/>
<stop offset="0.07" stop-color="white" stop-opacity="0.22"/>
<stop offset="0.16" stop-color="white" stop-opacity="0.45"/>
<stop offset="0.25" stop-color="white" stop-opacity="0.65"/>
<stop offset="0.33" stop-color="white" stop-opacity="0.8"/>
<stop offset="0.4" stop-color="white" stop-opacity="0.91"/>
<stop offset="0.46" stop-color="white" stop-opacity="0.98"/>
<stop offset="0.51" stop-color="white"/>
</linearGradient>
<linearGradient id="paint31_linear_108_1327" x1="432.446" y1="570.2" x2="444.097" y2="608.932" gradientUnits="userSpaceOnUse">
<stop stop-color="#010101" stop-opacity="0.01"/>
<stop offset="0.95" stop-color="#010101"/>
</linearGradient>
<linearGradient id="paint32_linear_108_1327" x1="457.244" y1="718.933" x2="558.146" y2="720.976" gradientUnits="userSpaceOnUse">
<stop stop-color="#010101" stop-opacity="0.01"/>
<stop offset="0.95" stop-color="#010101"/>
</linearGradient>
<linearGradient id="paint33_linear_108_1327" x1="860.015" y1="876.512" x2="763.922" y2="711.732" gradientUnits="userSpaceOnUse">
<stop stop-color="#010101" stop-opacity="0.01"/>
<stop offset="0.95" stop-color="#010101"/>
</linearGradient>
<linearGradient id="paint34_linear_108_1327" x1="861.037" y1="414.892" x2="688.151" y2="419.761" gradientUnits="userSpaceOnUse">
<stop stop-color="#010101" stop-opacity="0.01"/>
<stop offset="0.95" stop-color="#010101"/>
</linearGradient>
</defs>
</svg>
