<svg width="16" height="16" viewBox="0 0 16 16" fill="none" xmlns="http://www.w3.org/2000/svg">
<path fill-rule="evenodd" clip-rule="evenodd" d="M13.456 2.092C14.415 2.146 14.886 2.288 15.32 3.06C15.772 3.831 16 5.159 16 7.498V7.501V7.506C16 9.834 15.772 11.172 15.321 11.935C14.887 12.707 14.416 12.847 13.457 12.912C12.498 12.967 10.089 13 8.002 13C5.911 13 3.501 12.967 2.543 12.911C1.586 12.846 1.115 12.706 0.677 11.934C0.23 11.171 0 9.833 0 7.505V7.503V7.5V7.497C0 5.159 0.23 3.831 0.677 3.06C1.115 2.287 1.587 2.146 2.544 2.091C3.501 2.027 5.911 2 8.002 2C10.089 2 12.498 2.027 13.456 2.092ZM11 7.5L6 4.5V10.5L11 7.5Z" fill="#B0B8BC"/>
</svg>
